<svg width="25" height="25" viewBox="0 0 25 25" fill="none" xmlns="http://www.w3.org/2000/svg">
<mask id="mask0_36_614" style="mask-type:luminance" maskUnits="userSpaceOnUse" x="0" y="0" width="25" height="25">
<path d="M0 0H25V25H0V0Z" fill="white"/>
</mask>
<g mask="url(#mask0_36_614)">
<mask id="mask1_36_614" style="mask-type:luminance" maskUnits="userSpaceOnUse" x="0" y="0" width="25" height="25">
<path d="M12.5002 0C5.59667 0 0 5.59667 0 12.5002C0 19.4038 5.59667 25 12.5002 25C19.4038 25 25 19.4038 25 12.5002C25 5.59667 19.4038 0 12.5002 0Z" fill="white"/>
</mask>
<g mask="url(#mask1_36_614)">
<path d="M0 0H25V25H0V0Z" fill="white"/>
</g>
</g>
<path d="M20.7049 15.8856L19.0331 14.2138C18.1102 13.2913 16.6138 13.2913 15.6914 14.2138C15.3474 14.5573 15.1333 14.9803 15.0454 15.423C12.2887 14.9073 9.60742 12.2372 9.4408 9.85095C9.89366 9.76671 10.3274 9.55076 10.6774 9.2003C11.6003 8.27737 11.6003 6.78105 10.6774 5.85812L9.0061 4.18634C8.08317 3.26341 6.58639 3.26341 5.66346 4.18634C0.649496 9.2003 15.6909 24.2417 20.7049 19.2278C21.6273 18.3053 21.6273 16.8085 20.7049 15.8856Z" fill="#DF8787"/>
</svg>
