<svg width="25" height="25" viewBox="0 0 25 25" fill="none" xmlns="http://www.w3.org/2000/svg">
<mask id="mask0_36_617" style="mask-type:luminance" maskUnits="userSpaceOnUse" x="0" y="0" width="25" height="25">
<path d="M0 0H25V25H0V0Z" fill="white"/>
</mask>
<g mask="url(#mask0_36_617)">
<mask id="mask1_36_617" style="mask-type:luminance" maskUnits="userSpaceOnUse" x="0" y="0" width="25" height="25">
<path d="M12.4998 0C5.5962 0 0 5.59656 0 12.5C0 19.4034 5.5962 25 12.4998 25C19.4033 25 25 19.4034 25 12.5C25 5.59656 19.4033 0 12.4998 0Z" fill="white"/>
</mask>
<g mask="url(#mask1_36_617)">
<path d="M0 0H25V25H0V0Z" fill="white"/>
</g>
</g>
<mask id="mask2_36_617" style="mask-type:luminance" maskUnits="userSpaceOnUse" x="17" y="5" width="6" height="15">
<path d="M17.0264 5.33203H22.1935V19.7788H17.0264V5.33203Z" fill="white"/>
</mask>
<g mask="url(#mask2_36_617)">
<path d="M21.6695 16.1292C21.9022 15.6917 22.6953 14.8819 21.7254 14.3346C20.7554 13.7872 20.6884 11.5477 20.8881 10.4363C21.3088 8.0934 20.1965 6.0833 19.8399 5.5006C19.7766 5.39681 19.664 5.33398 19.543 5.33398H17.3755C17.1466 5.33398 16.9799 5.5518 17.0395 5.77287C17.7921 8.56487 19.1376 12.1723 19.1488 13.2213C19.166 14.8516 19.7175 16.5448 20.1117 17.3807C20.506 18.2161 19.7683 19.469 20.1862 19.7412C20.6042 20.0135 21.374 19.0073 21.7733 18.44C22.1722 17.8726 21.4373 16.5662 21.6695 16.1292Z" fill="#DF8787"/>
</g>
<mask id="mask3_36_617" style="mask-type:luminance" maskUnits="userSpaceOnUse" x="8" y="6" width="10" height="14">
<path d="M8.09668 6.19922H17.8281V19.7818H8.09668V6.19922Z" fill="white"/>
</mask>
<g mask="url(#mask3_36_617)">
<path d="M17.6153 9.35573C17.2821 8.30157 16.9386 7.2153 16.6565 6.20117C15.035 8.57384 12.9132 13.2717 12.0377 14.1476C10.8849 15.2999 10.0606 16.8786 9.739 17.7452C9.41786 18.6113 8.00671 18.9604 8.10445 19.4496C8.20219 19.9387 9.45975 19.7851 10.1444 19.6734C10.829 19.5612 11.2484 18.1222 11.7231 17.9826C12.1983 17.843 13.332 17.843 13.0449 16.7669C12.7572 15.6914 14.3918 14.1825 15.244 13.4416C16.0022 12.7835 17.2844 11.5506 17.8247 10.0185C17.7554 9.79833 17.6851 9.57633 17.6153 9.35573Z" fill="#DF8787"/>
</g>
<path d="M10.1468 9.71762L11.5109 7.34123L10.2171 6.1172C9.88056 5.82911 9.48728 5.61456 9.06282 5.48704L8.76123 5.39628C8.1506 5.21337 7.49017 5.42932 7.10573 5.93802C6.83439 6.29778 6.73572 6.75947 6.83672 7.19882L6.98007 7.82154C6.98007 7.822 6.98007 7.82293 6.98053 7.82386C7.0173 7.9821 6.9917 8.14918 6.90327 8.28602L4.65669 11.7561C4.50683 11.9884 4.56128 12.2969 4.78189 12.4631L5.11048 12.7116C5.33109 12.8782 5.64245 12.8461 5.82443 12.6381L8.52433 9.55472C8.68071 9.37601 8.92924 9.30899 9.15497 9.38438L10.1468 9.71762Z" fill="#DF8787"/>
<path d="M12.2571 8.04457L11.8713 7.67969L10.6133 9.87131L11.0959 10.0333C11.2961 10.1003 11.5162 10.0165 11.6204 9.83268L12.3405 8.5649C12.3437 8.55931 12.347 8.55326 12.3498 8.54721C12.4354 8.3792 12.394 8.17442 12.2571 8.04457Z" fill="#DF8787"/>
<path d="M4.84124 13.1131C4.83332 13.1075 4.82588 13.1024 4.81843 13.0968L4.48985 12.8482C4.47774 12.8394 4.46611 12.8301 4.45447 12.8203C4.26225 13.1317 4.08586 13.524 4.0961 13.9047C4.10587 14.2566 4.02349 14.7062 3.76472 14.9133C3.60881 15.0375 3.40123 15.0645 3.12989 14.9956C3.00097 14.9626 2.86972 15.0408 2.83668 15.1697C2.80363 15.2986 2.88182 15.4299 3.01074 15.4629C3.15176 15.4988 3.27975 15.5141 3.39425 15.5141C3.70701 15.5141 3.92576 15.4019 4.06585 15.2898C4.55221 14.9012 4.58619 14.1826 4.57827 13.8917C4.57176 13.6436 4.69323 13.3607 4.84124 13.1131Z" fill="#DF8787"/>
<path d="M13.4271 10.3371L12.4823 9.76833C12.3678 9.69945 12.3311 9.55145 12.4 9.43696C12.4688 9.32294 12.6168 9.28617 12.7309 9.35505L13.6757 9.92378C13.7902 9.99266 13.8269 10.1407 13.758 10.2547C13.6892 10.3692 13.5412 10.4059 13.4271 10.3371Z" fill="#DF8787"/>
<path d="M14.0944 9.22341L13.0165 8.99071C12.8862 8.96232 12.8034 8.83433 12.8317 8.70401C12.8597 8.5737 12.9881 8.49086 13.118 8.51925L14.1964 8.75195C14.3262 8.77988 14.4091 8.90833 14.3811 9.03818C14.3532 9.16849 14.2247 9.25134 14.0944 9.22341Z" fill="#DF8787"/>
<path d="M11.9605 10.5356L12.6735 11.3771C12.7596 11.479 12.9118 11.4916 13.0132 11.4055C13.1152 11.3194 13.1277 11.1672 13.0416 11.0652L12.3286 10.2238C12.2425 10.1223 12.0903 10.1098 11.9889 10.1959C11.8869 10.282 11.8744 10.4342 11.9605 10.5356Z" fill="#DF8787"/>
</svg>
