<svg width="25" height="25" viewBox="0 0 25 25" fill="none" xmlns="http://www.w3.org/2000/svg">
<mask id="mask0_182_752" style="mask-type:luminance" maskUnits="userSpaceOnUse" x="0" y="0" width="25" height="25">
<path d="M0 0H25V25H0V0Z" fill="white"/>
</mask>
<g mask="url(#mask0_182_752)">
<mask id="mask1_182_752" style="mask-type:luminance" maskUnits="userSpaceOnUse" x="0" y="0" width="25" height="25">
<path d="M12.4998 0C5.59652 0 0 5.59652 0 12.4998C0 19.4035 5.59652 25 12.4998 25C19.4035 25 25 19.4035 25 12.4998C25 5.59652 19.4035 0 12.4998 0Z" fill="white"/>
</mask>
<g mask="url(#mask1_182_752)">
<path d="M0 0H25V25H0V0Z" fill="white"/>
</g>
</g>
<mask id="mask2_182_752" style="mask-type:luminance" maskUnits="userSpaceOnUse" x="3" y="3" width="19" height="19">
<path d="M3.44141 3.44141H21.5839V21.5839H3.44141V3.44141Z" fill="white"/>
</mask>
<g mask="url(#mask2_182_752)">
<path d="M12.0488 3.44336H13.0367C13.0986 3.46197 13.1616 3.47987 13.2264 3.4881C15.1044 3.67351 16.9402 4.41047 18.3719 5.64925C18.7828 5.98606 19.1493 6.37405 19.4851 6.78531C20.1078 7.5323 20.6379 8.36913 20.9611 9.29043C21.1992 9.9372 21.3584 10.6119 21.4644 11.2923C21.5055 11.5454 21.5063 11.8034 21.5571 12.055V12.7702C21.5005 13.1947 21.4791 13.6245 21.3907 14.0455C21.2167 14.8859 20.9694 15.718 20.5714 16.4815C20.2743 17.0567 19.9203 17.6025 19.5098 18.1029C19.1218 18.5918 18.6872 19.046 18.204 19.4412C17.1571 20.3381 15.8847 20.9599 14.5464 21.2806C13.9097 21.4316 13.2579 21.5018 12.6061 21.549C12.3878 21.5554 12.173 21.5039 11.9547 21.5053C11.3047 21.452 10.6572 21.345 10.0308 21.161C9.8447 21.1012 9.63854 21.0465 9.50753 20.8911C9.42485 20.797 9.41913 20.666 9.42342 20.5475C9.41877 20.3442 9.5852 20.1739 9.76488 20.1055C10.0151 20.0346 10.2531 20.171 10.4886 20.2333C10.9324 20.3539 11.387 20.433 11.8444 20.4785C12.5696 20.525 13.303 20.5135 14.0188 20.3775C14.7096 20.2673 15.3675 20.0081 15.9935 19.7021C16.6399 19.3732 17.2538 18.9745 17.7903 18.4848C18.0623 18.2622 18.286 17.9898 18.5294 17.7378C19.1797 17.0062 19.6629 16.1372 20.0073 15.2238C20.2764 14.5158 20.4203 13.7648 20.4833 13.0111C20.5008 12.4377 20.5195 11.8575 20.4214 11.2902C20.2571 10.1222 19.7886 9.0116 19.1515 8.0248C18.538 7.13214 17.7509 6.35544 16.8378 5.77095C16.2122 5.38367 15.5472 5.05331 14.8417 4.83963C14.2959 4.65601 13.7207 4.588 13.1516 4.52179C12.9211 4.51356 12.6913 4.49423 12.4611 4.48385C11.8899 4.50139 11.3186 4.56044 10.7567 4.66925C9.75128 4.88365 8.79813 5.31137 7.94877 5.88799C7.03892 6.52295 6.23789 7.329 5.67022 8.28609C5.16232 9.10037 4.81549 10.0113 4.63116 10.9519C4.54419 11.3668 4.5245 11.7909 4.50804 12.2132C4.48978 13.0834 4.58893 13.9581 4.83804 14.7932C5.09074 15.5892 5.46262 16.3466 5.93007 17.0384C6.02456 17.1866 6.04282 17.3713 5.98985 17.5385C5.88784 17.9229 5.77115 18.3033 5.67237 18.6888C5.59792 18.9809 5.49734 19.2662 5.43936 19.5622C6.05893 19.4294 6.67456 19.2751 7.28804 19.1155C7.4806 19.0636 7.6814 19.0113 7.88148 19.0489C8.05042 19.0886 8.21006 19.2186 8.24191 19.3961C8.26267 19.5425 8.26124 19.7107 8.15422 19.8263C7.99065 20.0343 7.70896 20.0511 7.4738 20.1195C6.80842 20.2798 6.15163 20.4713 5.48696 20.6338C5.24035 20.6957 4.99625 20.7762 4.74283 20.8074C4.53488 20.8292 4.29865 20.729 4.22205 20.5228C4.12685 20.3049 4.22277 20.0708 4.27181 19.8535C4.46473 19.133 4.66516 18.4139 4.87097 17.6967C4.89961 17.5778 4.94864 17.4429 4.88064 17.3287C4.75894 17.1029 4.61863 16.8867 4.50302 16.6576C4.22563 16.1454 4.01625 15.5985 3.84695 15.0419C3.65259 14.3314 3.4994 13.6041 3.48007 12.8657C3.44106 12.5404 3.44929 12.2122 3.48294 11.8865C3.49833 11.2937 3.63362 10.7135 3.76284 10.1373C3.9103 9.5943 4.08747 9.05598 4.33874 8.55095C4.82194 7.58885 5.46012 6.69976 6.24075 5.95599C6.90649 5.31746 7.68033 4.7956 8.50105 4.37754C9.53474 3.87394 10.6654 3.57543 11.8101 3.47736C11.8899 3.46734 11.969 3.45446 12.0488 3.44336Z" fill="#DF8787"/>
</g>
<path d="M9.50636 6.76955C9.69392 6.74343 9.89614 6.73698 10.0726 6.81752C10.2483 6.8891 10.3861 7.03048 10.4946 7.18332C10.699 7.49435 10.8726 7.82436 11.059 8.14613C11.316 8.6211 11.6042 9.07925 11.8515 9.55958C11.9671 9.79116 12.0201 10.0754 11.9091 10.3191C11.7695 10.6659 11.4417 10.8707 11.1804 11.118C11.0233 11.2622 10.8747 11.4161 10.7086 11.5514C10.6764 11.5865 10.6081 11.6273 10.6471 11.6814C10.869 12.1778 11.1646 12.6392 11.509 13.0594C11.9936 13.6102 12.6103 14.034 13.2785 14.3304C13.3186 14.3447 13.3759 14.3576 13.4074 14.32C13.6476 14.0766 13.8723 13.8185 14.1028 13.5658C14.2961 13.3428 14.5166 13.1088 14.8194 13.0497C15.1254 12.9738 15.4125 13.1449 15.6741 13.2799C16.3277 13.6367 16.9673 14.0186 17.618 14.3805C17.8854 14.5312 18.166 14.7395 18.2372 15.0555C18.2609 15.2384 18.2598 15.4285 18.2072 15.6064C18.0908 16.0094 17.9602 16.4131 17.7433 16.775C17.6123 17.0184 17.4111 17.212 17.2132 17.4006C16.9219 17.6827 16.546 17.8563 16.1688 17.9919C15.5907 18.1995 14.959 18.2264 14.3555 18.1326C13.6429 18.0012 12.9825 17.6877 12.3329 17.3788C11.3701 16.8906 10.4627 16.285 9.67638 15.5427C9.24687 15.1239 8.85422 14.6665 8.50704 14.1761C7.99449 13.4463 7.55245 12.6632 7.22745 11.831C7.01664 11.331 6.83696 10.8059 6.81548 10.2593C6.77969 9.99052 6.81298 9.72029 6.83803 9.4522C6.95042 8.70772 7.29331 7.97326 7.88281 7.48863C8.34311 7.10242 8.93189 6.91272 9.50636 6.76955ZM9.26834 7.9346C8.85959 8.04878 8.49594 8.30684 8.24539 8.64902C7.90322 9.17159 7.78474 9.82588 7.89033 10.4394C7.95404 10.8682 8.14124 11.2629 8.30266 11.6613C8.65629 12.462 9.08831 13.2323 9.63271 13.9198C10.1363 14.5956 10.7684 15.165 11.4563 15.6479C12.1654 16.1504 12.9442 16.5484 13.7506 16.8684C14.1347 17.0291 14.5442 17.1458 14.9629 17.1487C15.4336 17.1601 15.9089 17.0331 16.3102 16.7861C16.5142 16.6451 16.6928 16.4643 16.8292 16.2574C17.0153 15.9825 17.0962 15.6561 17.1774 15.3397C16.4891 14.9625 15.8073 14.5727 15.124 14.1861C15.0778 14.1614 15.0141 14.126 14.9769 14.1843C14.6519 14.5247 14.3416 14.8783 14.0166 15.2184C13.8061 15.4288 13.4804 15.5244 13.193 15.4367C12.9492 15.358 12.7248 15.2298 12.4965 15.1146C11.7459 14.7398 11.0608 14.2176 10.5436 13.553C10.1542 13.0683 9.87109 12.5096 9.61481 11.9462C9.44516 11.5969 9.56184 11.1577 9.85785 10.915C10.1306 10.6691 10.3947 10.4139 10.6668 10.167C10.7326 10.1054 10.8038 10.0471 10.85 9.96869C10.7734 9.77255 10.6503 9.59859 10.5515 9.41283C10.2598 8.88131 9.94625 8.36053 9.66528 7.82364C9.53357 7.86302 9.39791 7.88628 9.26834 7.9346Z" fill="#DF8787"/>
<path d="M9.26787 7.93322C9.39744 7.8849 9.5331 7.86164 9.66481 7.82227C9.94578 8.35915 10.2593 8.87993 10.551 9.41145C10.6498 9.59722 10.7729 9.77117 10.8495 9.96731C10.8034 10.0457 10.7321 10.104 10.6663 10.1656C10.3943 10.4126 10.1301 10.6678 9.85738 10.9137C9.56137 11.1563 9.44469 11.5955 9.61435 11.9448C9.87062 12.5082 10.1537 13.0669 10.5432 13.5516C11.0604 14.2162 11.7454 14.7385 12.496 15.1132C12.7244 15.2285 12.9488 15.3566 13.1925 15.4353C13.4799 15.523 13.8056 15.4275 14.0161 15.217C14.3411 14.877 14.6514 14.5233 14.9764 14.183C15.0136 14.1246 15.0774 14.16 15.1235 14.1847C15.8068 14.5713 16.4887 14.9611 17.1769 15.3383C17.0957 15.6547 17.0148 15.9812 16.8287 16.2561C16.6923 16.4629 16.5137 16.6437 16.3097 16.7847C15.9085 17.0317 15.4331 17.1587 14.9625 17.1473C14.5437 17.1444 14.1342 17.0277 13.7502 16.867C12.9438 16.547 12.1649 16.149 11.4559 15.6465C10.7679 15.1637 10.1358 14.5942 9.63224 13.9184C9.08784 13.2309 8.65582 12.4606 8.30219 11.6599C8.14077 11.2616 7.95357 10.8668 7.88986 10.438C7.78427 9.8245 7.90275 9.17021 8.24492 8.64764C8.49547 8.30546 8.85912 8.0474 9.26787 7.93322Z" fill="white"/>
</svg>
