<svg width="19" height="18" viewBox="0 0 19 18" fill="none" xmlns="http://www.w3.org/2000/svg">
<mask id="mask0_182_291" style="mask-type:luminance" maskUnits="userSpaceOnUse" x="0" y="0" width="19" height="18">
<path d="M0.5 0H18.5V18H0.5V0Z" fill="white"/>
</mask>
<g mask="url(#mask0_182_291)">
<mask id="mask1_182_291" style="mask-type:luminance" maskUnits="userSpaceOnUse" x="0" y="0" width="19" height="18">
<path d="M9.50017 0C4.5296 0 0.5 4.0296 0.5 9.00017C0.5 13.9707 4.5296 18 9.50017 18C14.4707 18 18.5 13.9707 18.5 9.00017C18.5 4.0296 14.4707 0 9.50017 0Z" fill="white"/>
</mask>
<g mask="url(#mask1_182_291)">
<path d="M0.5 0H18.5V18H0.5V0Z" fill="#1D70CA"/>
</g>
</g>
<path d="M15.407 11.4375L14.2033 10.2338C13.5388 9.5696 12.4615 9.5696 11.7973 10.2338C11.5496 10.4811 11.3955 10.7857 11.3322 11.1044C9.34736 10.7331 7.41684 8.8106 7.29687 7.09253C7.62292 7.03188 7.93524 6.87639 8.18724 6.62406C8.85174 5.95955 8.85174 4.8822 8.18724 4.21769L6.98388 3.01401C6.31938 2.3495 5.24169 2.3495 4.57718 3.01401C0.967129 6.62406 11.797 17.4539 15.407 13.8438C16.0712 13.1797 16.0712 12.102 15.407 11.4375Z" fill="white"/>
</svg>
