<svg width="25" height="25" viewBox="0 0 25 25" fill="none" xmlns="http://www.w3.org/2000/svg">
<mask id="mask0_182_788" style="mask-type:luminance" maskUnits="userSpaceOnUse" x="0" y="0" width="25" height="25">
<path d="M0 0H25V25H0V0Z" fill="white"/>
</mask>
<g mask="url(#mask0_182_788)">
<path d="M25.0158 12.5064C25.0158 19.4148 19.4157 25.0148 12.5074 25.0148C5.59926 25.0148 -0.000976562 19.4148 -0.000976562 12.5064C-0.000976562 5.59829 5.59926 -0.00195312 12.5074 -0.00195312C19.4157 -0.00195312 25.0158 5.59829 25.0158 12.5064Z" fill="white"/>
</g>
<path d="M7.78461 6.27734H17.4821C18.4031 6.27734 19.1564 7.03081 19.1564 7.95202V17.6495C19.1564 18.5705 18.4031 19.3234 17.4821 19.3234H7.78461C6.86321 19.3234 6.10938 18.5705 6.10938 17.6495V7.95202C6.10919 7.03081 6.86321 6.27734 7.78461 6.27734ZM15.614 7.72618C15.2904 7.72618 15.0266 7.99149 15.0266 8.3145V9.7194C15.0266 10.0432 15.2904 10.3074 15.614 10.3074H17.0881C17.4111 10.3074 17.6759 10.0432 17.6759 9.7194V8.3145C17.6759 7.99149 17.4111 7.72618 17.0881 7.72618H15.614ZM17.6813 11.7942H16.5333C16.6422 12.1501 16.7012 12.5246 16.7012 12.9146C16.7012 15.0841 14.8849 16.8435 12.6452 16.8435C10.4058 16.8435 8.58945 15.0841 8.58945 12.9146C8.58945 12.5246 8.64903 12.1501 8.75739 11.7942H7.5597V17.306C7.5597 17.5914 7.7928 17.8234 8.07784 17.8234H17.1631C17.4487 17.8234 17.6815 17.5914 17.6815 17.306V11.7942H17.6813ZM12.6452 10.2334C11.1986 10.2334 10.0253 11.3697 10.0253 12.7727C10.0253 14.1743 11.1986 15.3115 12.6452 15.3115C14.0923 15.3115 15.2658 14.1743 15.2658 12.7727C15.2658 11.3697 14.0923 10.2334 12.6452 10.2334Z" fill="#DF8787"/>
</svg>
