<svg width="25" height="25" viewBox="0 0 25 25" fill="none" xmlns="http://www.w3.org/2000/svg">
<mask id="mask0_182_731" style="mask-type:luminance" maskUnits="userSpaceOnUse" x="0" y="0" width="25" height="25">
<path d="M0 0H25V25H0V0Z" fill="white"/>
</mask>
<g mask="url(#mask0_182_731)">
<mask id="mask1_182_731" style="mask-type:luminance" maskUnits="userSpaceOnUse" x="0" y="0" width="25" height="25">
<path d="M12.5 0C5.59656 0 0 5.59656 0 12.5C0 19.4034 5.59656 25 12.5 25C19.4034 25 25 19.4034 25 12.5C25 5.59656 19.4034 0 12.5 0Z" fill="white"/>
</mask>
<g mask="url(#mask1_182_731)">
<path d="M0 0H25V25H0V0Z" fill="white"/>
</g>
</g>
<path d="M20.68 9.33247V16.1771C20.6797 16.2058 20.678 16.2342 20.6749 16.2627C20.6717 16.291 20.6674 16.3193 20.6614 16.3472C20.6556 16.3753 20.6484 16.4029 20.6399 16.4301C20.6314 16.4574 20.6216 16.4841 20.6105 16.5105C20.5993 16.5368 20.5869 16.5625 20.5733 16.5876C20.5596 16.6127 20.5448 16.6372 20.5287 16.6607C20.5127 16.6845 20.4955 16.7072 20.4773 16.7293C20.4591 16.7512 20.4397 16.7723 20.4194 16.7924C20.3991 16.8125 20.3779 16.8316 20.3558 16.8496C20.3335 16.8675 20.3105 16.8846 20.2867 16.9002C20.2629 16.9161 20.2384 16.9307 20.213 16.944C20.1878 16.9574 20.162 16.9695 20.1355 16.9804C20.1091 16.9913 20.0822 17.0009 20.0549 17.0091C20.0276 17.0173 19.9998 17.0242 19.9717 17.0297C19.9438 17.0352 19.9155 17.0394 19.8871 17.0422C19.8586 17.0451 19.8302 17.0464 19.8015 17.0464C19.7605 17.0473 19.7212 17.0563 19.6837 17.0732C19.6464 17.09 19.6137 17.1136 19.5858 17.1436C19.5569 17.1736 19.536 17.2083 19.5228 17.2477C19.5095 17.287 19.5051 17.3273 19.5098 17.3687L19.7469 19.5782L16.4035 17.1042C16.3517 17.0667 16.2941 17.0475 16.2302 17.0464H8.37035C8.34183 17.0464 8.31346 17.0451 8.28509 17.0422C8.25672 17.0394 8.2285 17.0352 8.20058 17.0297C8.17266 17.0242 8.14503 17.0173 8.11771 17.009C8.09038 17.0007 8.06366 16.9912 8.03723 16.9803C8.01095 16.9694 7.98512 16.9573 7.96003 16.9438C7.9348 16.9304 7.91046 16.9158 7.88672 16.9001C7.86297 16.8843 7.84013 16.8672 7.81803 16.8492C7.79593 16.8313 7.77473 16.8122 7.75457 16.792C7.73441 16.7718 7.7153 16.7508 7.69708 16.7288C7.67902 16.7069 7.662 16.684 7.64617 16.6603C7.63019 16.6367 7.61556 16.6122 7.60197 16.5871C7.58853 16.562 7.57629 16.5364 7.56539 16.5101C7.55434 16.4837 7.54463 16.4569 7.53627 16.4298C7.52791 16.4024 7.52104 16.3748 7.51537 16.3469C7.50969 16.319 7.50536 16.2907 7.50253 16.2624C7.49969 16.2342 7.4982 16.2056 7.49805 16.1771V15.4932L8.78067 14.542H16.5312C16.579 14.5418 16.6268 14.5394 16.6744 14.5346C16.722 14.5299 16.7692 14.5227 16.8161 14.5133C16.8631 14.5039 16.9094 14.4922 16.9551 14.4783C17.001 14.4643 17.0459 14.4482 17.0901 14.4298C17.1343 14.4115 17.1775 14.391 17.2197 14.3684C17.262 14.3459 17.3029 14.3213 17.3426 14.2947C17.3825 14.268 17.4208 14.2396 17.4577 14.2091C17.4947 14.1788 17.5301 14.1467 17.564 14.1128C17.5979 14.0791 17.63 14.0437 17.6603 14.0067C17.6906 13.9696 17.7192 13.9313 17.7457 13.8915C17.7723 13.8517 17.797 13.8108 17.8195 13.7685C17.8422 13.7264 17.8627 13.6832 17.881 13.639C17.8994 13.5948 17.9155 13.5497 17.9294 13.5041C17.9434 13.4582 17.9551 13.4119 17.9645 13.365C17.9739 13.318 17.9811 13.2708 17.9858 13.2232C17.9906 13.1756 17.993 13.1278 17.9932 13.08V8.45703H19.8168C19.8451 8.45763 19.8733 8.45942 19.9016 8.46271C19.9298 8.46584 19.9579 8.47047 19.9856 8.47644C20.0134 8.48241 20.0407 8.48958 20.0678 8.49824C20.0948 8.5069 20.1214 8.51676 20.1475 8.52796C20.1736 8.53916 20.1992 8.55155 20.2239 8.56514C20.2489 8.57887 20.2731 8.59366 20.2965 8.60963C20.32 8.62561 20.3426 8.64278 20.3644 8.661C20.3862 8.67921 20.407 8.69833 20.427 8.71863C20.4469 8.73879 20.4658 8.75984 20.4838 8.78194C20.5017 8.80404 20.5184 8.82689 20.5341 8.85048C20.5498 8.87422 20.5642 8.89856 20.5775 8.92364C20.5908 8.94873 20.6029 8.97441 20.6137 9.00069C20.6246 9.02697 20.634 9.0537 20.6423 9.08087C20.6505 9.10805 20.6574 9.13552 20.6629 9.1633C20.6685 9.19122 20.6726 9.21914 20.6755 9.24751C20.6783 9.27573 20.6798 9.30395 20.68 9.33247Z" fill="#DF8787"/>
<path d="M17.4069 8.19302V13.0804C17.4069 13.1091 17.4056 13.1376 17.4027 13.1663C17.3999 13.1948 17.3957 13.223 17.39 13.2512C17.3845 13.2793 17.3775 13.3071 17.3693 13.3346C17.3609 13.3619 17.3512 13.3889 17.3403 13.4153C17.3292 13.4419 17.317 13.4678 17.3036 13.493C17.29 13.5184 17.2753 13.5429 17.2594 13.5667C17.2434 13.5906 17.2264 13.6136 17.2082 13.6357C17.1899 13.6578 17.1708 13.6792 17.1505 13.6993C17.1302 13.7196 17.109 13.7389 17.0869 13.7571C17.0647 13.7752 17.0417 13.7924 17.0179 13.8082C16.994 13.8242 16.9694 13.8389 16.9442 13.8524C16.9189 13.866 16.8929 13.8782 16.8665 13.8891C16.8401 13.9002 16.8131 13.9097 16.7856 13.9181C16.7583 13.9264 16.7305 13.9333 16.7023 13.939C16.6742 13.9445 16.6458 13.9487 16.6173 13.9515C16.5888 13.9544 16.5603 13.9557 16.5316 13.9557H8.68386C8.6195 13.9553 8.56172 13.9745 8.5105 14.0135L7.04556 15.0956L6.99689 15.135L5.15806 16.4845L5.37994 14.2779C5.38353 14.237 5.3789 14.1972 5.36621 14.158C5.35366 14.1191 5.33381 14.0841 5.30708 14.0531C5.27871 14.0225 5.24556 13.9989 5.20763 13.982C5.16956 13.965 5.12984 13.9563 5.08818 13.9557C5.05951 13.9557 5.03099 13.9544 5.00232 13.9515C4.9738 13.9487 4.94558 13.9445 4.91736 13.939C4.88929 13.9333 4.86152 13.9264 4.83404 13.9181C4.80672 13.9097 4.77969 13.9002 4.75326 13.8891C4.72669 13.8782 4.70086 13.866 4.67562 13.8524C4.65024 13.8389 4.62575 13.8242 4.60186 13.8082C4.57797 13.7924 4.55497 13.7752 4.53287 13.7571C4.51078 13.7389 4.48942 13.7196 4.46927 13.6993C4.44896 13.6792 4.4297 13.6578 4.41148 13.6357C4.39341 13.6136 4.37624 13.5906 4.36041 13.5667C4.34444 13.5429 4.32966 13.5184 4.31622 13.493C4.30263 13.4678 4.29039 13.4419 4.27949 13.4153C4.26844 13.3889 4.25888 13.3619 4.25052 13.3346C4.24216 13.3071 4.23529 13.2793 4.22961 13.2512C4.22409 13.223 4.21991 13.1948 4.21707 13.1663C4.21423 13.1376 4.21289 13.1091 4.21289 13.0804V6.23877C4.21289 6.2098 4.21423 6.18098 4.21707 6.15217C4.21991 6.12335 4.22424 6.09483 4.22991 6.06646C4.23559 6.03809 4.24275 6.01002 4.25112 5.98239C4.25963 5.95477 4.26948 5.9276 4.28068 5.90087C4.29173 5.87429 4.30427 5.84816 4.31801 5.82278C4.33175 5.79724 4.34668 5.77261 4.36295 5.74857C4.37908 5.72468 4.3964 5.70153 4.41492 5.67928C4.43343 5.65704 4.45299 5.63568 4.47345 5.61538C4.49405 5.59507 4.5157 5.57581 4.5381 5.55774C4.56065 5.53952 4.58394 5.5225 4.60813 5.50667C4.63232 5.49085 4.65725 5.47621 4.68294 5.46278C4.70862 5.44934 4.73475 5.43724 4.76163 5.42649C4.7885 5.41574 4.81583 5.40618 4.8436 5.39812C4.87137 5.39006 4.89945 5.38334 4.92782 5.37811C4.95633 5.37274 4.98485 5.36886 5.01367 5.36647C5.04249 5.36408 5.07146 5.36303 5.10028 5.36333H16.5316C16.5603 5.36333 16.5888 5.36482 16.6173 5.36766C16.6458 5.37035 16.6742 5.37453 16.7023 5.3802C16.7305 5.38573 16.7583 5.39275 16.7856 5.40111C16.8131 5.40932 16.8401 5.41903 16.8665 5.43008C16.8929 5.44098 16.9189 5.45322 16.9442 5.46681C16.9694 5.48025 16.994 5.49503 17.0179 5.51086C17.0417 5.52683 17.0647 5.54385 17.0869 5.56207C17.109 5.58029 17.1302 5.59955 17.1505 5.61971C17.1708 5.64001 17.1899 5.66122 17.2082 5.68346C17.2264 5.70556 17.2434 5.72856 17.2594 5.75245C17.2753 5.77619 17.29 5.80083 17.3036 5.82606C17.317 5.85144 17.3292 5.87728 17.3403 5.90371C17.3512 5.93028 17.3609 5.95716 17.3693 5.98463C17.3775 6.01211 17.3845 6.03988 17.39 6.06795C17.3957 6.09602 17.3999 6.12439 17.4027 6.15291C17.4056 6.18143 17.4069 6.2101 17.4069 6.23877V8.13538C17.4054 8.14449 17.4054 8.1536 17.4069 8.16271C17.4054 8.17286 17.4054 8.18286 17.4069 8.19302ZM15.1881 8.59124C15.2203 8.58243 15.2503 8.56885 15.2779 8.55018C15.3056 8.53152 15.3296 8.50897 15.3499 8.48254C15.3701 8.45596 15.3856 8.42699 15.3964 8.39534C15.407 8.36383 15.4123 8.33128 15.4123 8.29799C15.4123 8.26454 15.407 8.23214 15.3964 8.20048C15.3856 8.16883 15.3701 8.13986 15.3499 8.11328C15.3296 8.08685 15.3056 8.06431 15.2779 8.04564C15.2503 8.02698 15.2203 8.01339 15.1881 8.00458L6.43471 8.08058C6.42336 8.0776 6.41202 8.07521 6.40052 8.07341C6.38902 8.07162 6.37752 8.07058 6.36588 8.07013C6.35423 8.06968 6.34258 8.06998 6.33094 8.07088C6.31944 8.07177 6.30779 8.07341 6.29644 8.07565C6.28495 8.07789 6.27375 8.08073 6.2627 8.08431C6.25165 8.0879 6.24075 8.09193 6.23015 8.09671C6.21955 8.10149 6.20924 8.10686 6.19924 8.11283C6.18924 8.11881 6.17953 8.12538 6.17027 8.13239C6.16116 8.13956 6.15236 8.14703 6.14384 8.15524C6.13548 8.1633 6.12757 8.17181 6.12025 8.18077C6.11279 8.18973 6.10607 8.19914 6.09965 8.20884C6.09338 8.2187 6.08755 8.22885 6.08248 8.2393C6.07725 8.24961 6.07277 8.26036 6.06889 8.27126C6.06486 8.28231 6.06157 8.29336 6.05903 8.30471C6.05634 8.31605 6.0544 8.32755 6.05306 8.33905C6.05172 8.35069 6.05097 8.36219 6.05097 8.37384C6.05097 8.38549 6.05172 8.39713 6.05306 8.40878C6.0544 8.42028 6.05634 8.43177 6.05903 8.44312C6.06157 8.45432 6.06486 8.46552 6.06889 8.47642C6.07277 8.48747 6.07725 8.49807 6.08248 8.50852C6.08755 8.51897 6.09338 8.52913 6.09965 8.53883C6.10607 8.54869 6.11279 8.55809 6.12025 8.56705C6.12757 8.57601 6.13548 8.58452 6.14384 8.59259C6.15236 8.60065 6.16116 8.60826 6.17027 8.61543C6.17953 8.62245 6.18924 8.62902 6.19924 8.63484C6.20924 8.64082 6.21955 8.64619 6.23015 8.65097C6.24075 8.65575 6.25165 8.65993 6.2627 8.66351C6.27375 8.66709 6.28495 8.66993 6.29644 8.67217C6.30779 8.67441 6.31944 8.67605 6.33094 8.67695C6.34258 8.67785 6.35423 8.67799 6.36588 8.6777C6.37752 8.67725 6.38902 8.6762 6.40052 8.67441C6.41202 8.67262 6.42336 8.67023 6.43471 8.66724L15.1881 8.59124ZM15.1881 11.357C15.2203 11.3484 15.2503 11.3346 15.2779 11.3161C15.3056 11.2974 15.3296 11.2749 15.3499 11.2483C15.3701 11.2219 15.3856 11.1928 15.3964 11.1613C15.407 11.1296 15.4123 11.0971 15.4123 11.0638C15.4123 11.0305 15.407 10.9979 15.3964 10.9663C15.3856 10.9348 15.3701 10.9056 15.3499 10.8792C15.3296 10.8526 15.3056 10.8301 15.2779 10.8116C15.2503 10.7929 15.2203 10.7792 15.1881 10.7705L6.42859 10.8313C6.39634 10.8399 6.36647 10.8537 6.3387 10.8723C6.31108 10.8909 6.28704 10.9134 6.26688 10.94C6.24657 10.9664 6.23104 10.9955 6.22044 11.0272C6.20969 11.0587 6.20432 11.0912 6.20432 11.1245C6.20432 11.158 6.20969 11.1904 6.22044 11.222C6.23104 11.2535 6.24657 11.2827 6.26688 11.3091C6.28704 11.3357 6.31108 11.3582 6.3387 11.3769C6.36647 11.3954 6.39634 11.4091 6.42859 11.4178L15.1881 11.357Z" fill="#DF8787"/>
</svg>
