<svg width="25" height="25" viewBox="0 0 25 25" fill="none" xmlns="http://www.w3.org/2000/svg">
<mask id="mask0_182_770" style="mask-type:luminance" maskUnits="userSpaceOnUse" x="0" y="0" width="25" height="25">
<path d="M0 0H25V25H0V0Z" fill="white"/>
</mask>
<g mask="url(#mask0_182_770)">
<mask id="mask1_182_770" style="mask-type:luminance" maskUnits="userSpaceOnUse" x="0" y="0" width="25" height="25">
<path d="M12.5 0C5.59656 0 0 5.59656 0 12.5C0 19.4034 5.59656 25 12.5 25C19.4034 25 25 19.4034 25 12.5C25 5.59656 19.4034 0 12.5 0Z" fill="white"/>
</mask>
<g mask="url(#mask1_182_770)">
<path d="M0 0H25V25H0V0Z" fill="white"/>
</g>
</g>
<mask id="mask2_182_770" style="mask-type:luminance" maskUnits="userSpaceOnUse" x="6" y="3" width="13" height="19">
<path d="M6.33301 3.0293H18.6948V21.8859H6.33301V3.0293Z" fill="white"/>
</mask>
<g mask="url(#mask2_182_770)">
<path d="M18.6636 9.21357C18.6636 5.80769 15.9032 3.04688 12.4988 3.04688C9.09382 3.04688 6.33301 5.80769 6.33301 9.21357C6.33301 9.27361 6.34092 9.33364 6.34185 9.39415C6.34185 9.39554 6.33766 9.39554 6.33766 9.39554C6.33766 9.53284 6.34744 9.67665 6.36372 9.82512C6.36652 9.85304 6.37071 9.87817 6.37257 9.9061C6.38839 10.0322 6.4084 10.163 6.43307 10.2956C6.44936 10.3897 6.46612 10.4823 6.48752 10.573C7.42905 14.752 12.4974 21.9523 12.4974 21.9523C12.4974 21.9523 17.0477 15.3602 18.3294 11.2037C18.4304 10.9025 18.51 10.5926 18.5654 10.2738C18.6254 9.95683 18.6631 9.66222 18.6631 9.39554C18.6631 9.37553 18.6557 9.35784 18.6557 9.3383C18.6566 9.29641 18.6636 9.25592 18.6636 9.21357ZM12.4988 12.431C10.6948 12.431 9.23345 10.97 9.23345 9.16749C9.23345 7.36496 10.6939 5.90357 12.4988 5.90357C14.3004 5.90357 15.7627 7.36449 15.7627 9.16749C15.7627 10.9696 14.3004 12.431 12.4988 12.431Z" fill="#DF8787"/>
</g>
</svg>
